G04 ================== begin FILE IDENTIFICATION RECORD ==================*
G04 Layout Name:  E:/workDir/vcc12_24/board/vcc12_5.brd*
G04 Film Name:    assemblyTop*
G04 File Format:  Gerber RS274X*
G04 File Origin:  Cadence Allegro 16.5-P002*
G04 Origin Date:  Sun Oct 29 23:29:05 2017*
G04 *
G04 Layer:  BOARD GEOMETRY/OUTLINE*
G04 Layer:  PACKAGE GEOMETRY/ASSEMBLY_TOP*
G04 Layer:  REF DES/ASSEMBLY_TOP*
G04 *
G04 Offset:    (0.00 0.00)*
G04 Mirror:    No*
G04 Mode:      Positive*
G04 Rotation:  0*
G04 FullContactRelief:  No*
G04 UndefLineWidth:     6.00*
G04 ================== end FILE IDENTIFICATION RECORD ====================*
%FSLAX35Y35*MOIN*%
%IR0*IPPOS*OFA0.00000B0.00000*MIA0B0*SFA1.00000B1.00000*%
%ADD10C,.006*%
%ADD11C,.00394*%
%ADD12C,.00787*%
G75*
%LPD*%
G75*
G54D10*
G01X-48228Y32933D02*
Y-32933D01*
G03X-45728Y-35433I2500J0D01*
G01X45728D01*
G03X48228Y-32933I0J2500D01*
G01Y32933D01*
G03X45728Y35433I-2500J0D01*
G01X-45728D01*
G03X-48228Y32933I0J-2500D01*
G01X-45268Y-23000D02*
X-43231D01*
G01X-29126Y28900D02*
G03I-7874J0D01*
G01X-43718Y9039D02*
X-33482D01*
Y-11039D01*
X-43718D01*
Y9039D01*
G01X-39193Y15000D02*
Y18098D01*
X-38427D01*
X-38121Y17943D01*
X-37891Y17737D01*
X-37699Y17427D01*
X-37546Y17065D01*
X-37508Y16549D01*
X-37546Y16033D01*
X-37699Y15671D01*
X-37891Y15361D01*
X-38121Y15155D01*
X-38427Y15000D01*
X-39193D01*
G01X-35253D02*
Y18098D01*
X-35712Y17478D01*
G01Y15000D02*
X-34793D01*
G01X-26608Y-33011D02*
Y-30791D01*
X-26761Y-30326D01*
X-27067Y-30016D01*
X-27450Y-29913D01*
X-27834Y-30016D01*
X-28140Y-30326D01*
X-28293Y-30791D01*
Y-33011D01*
G01X-29820Y-32495D02*
X-30050Y-32804D01*
X-30319Y-32959D01*
X-30625Y-33011D01*
X-31008Y-32908D01*
X-31277Y-32650D01*
X-31353Y-32340D01*
X-31315Y-32030D01*
X-31162Y-31772D01*
X-30395Y-31255D01*
X-30050Y-30894D01*
X-29820Y-30378D01*
X-29744Y-29913D01*
X-31353D01*
G01X-27108Y21840D02*
X-27337Y21995D01*
X-27606Y22098D01*
X-27912D01*
X-28257Y21943D01*
X-28525Y21685D01*
X-28717Y21375D01*
X-28870Y20859D01*
X-28908Y20394D01*
X-28832Y19929D01*
X-28717Y19620D01*
X-28487Y19310D01*
X-28219Y19103D01*
X-27951Y19000D01*
X-27682D01*
X-27414Y19103D01*
X-27184Y19258D01*
X-26993Y19465D01*
G01X-24853Y19000D02*
Y22098D01*
X-25312Y21478D01*
G01Y19000D02*
X-24393D01*
G01X-25011Y-22900D02*
X-23131D01*
G01X-24150Y-21536D02*
Y-24265D01*
G01X-27764Y-20164D02*
Y9364D01*
X1764D01*
Y-20164D01*
X-27764D01*
G01X-22700Y-35433D02*
Y-25600D01*
X16000D01*
Y-35433D01*
X-22700D01*
G01X-15817Y-5802D02*
Y-8900D01*
X-14284D01*
G01X-11953D02*
Y-5802D01*
X-12412Y-6422D01*
G01Y-8900D02*
X-11493D01*
G01X-14416Y21600D02*
Y24698D01*
X-13458D01*
X-13151Y24543D01*
X-12960Y24337D01*
X-12883Y23923D01*
X-12960Y23510D01*
X-13190Y23252D01*
X-13458Y23097D01*
X-14416D01*
G01X-13458D02*
X-12883Y21600D01*
G01X-11280Y24182D02*
X-11050Y24491D01*
X-10781Y24646D01*
X-10475Y24698D01*
X-10092Y24595D01*
X-9823Y24337D01*
X-9747Y24027D01*
X-9785Y23717D01*
X-9938Y23459D01*
X-10705Y22942D01*
X-11050Y22581D01*
X-11280Y22065D01*
X-11356Y21600D01*
X-9747D01*
G01X-3607Y-9260D02*
X-3836Y-9105D01*
X-4105Y-9002D01*
X-4411D01*
X-4756Y-9157D01*
X-5024Y-9415D01*
X-5216Y-9725D01*
X-5369Y-10241D01*
X-5407Y-10706D01*
X-5331Y-11171D01*
X-5216Y-11480D01*
X-4986Y-11790D01*
X-4718Y-11997D01*
X-4450Y-12100D01*
X-4181D01*
X-3913Y-11997D01*
X-3683Y-11842D01*
X-3492Y-11635D01*
G01X-2080Y-9518D02*
X-1850Y-9209D01*
X-1581Y-9054D01*
X-1275Y-9002D01*
X-892Y-9105D01*
X-623Y-9363D01*
X-547Y-9673D01*
X-585Y-9983D01*
X-738Y-10241D01*
X-1505Y-10758D01*
X-1850Y-11119D01*
X-2080Y-11635D01*
X-2156Y-12100D01*
X-547D01*
G01X-5692Y21900D02*
Y24998D01*
X-4926D01*
X-4620Y24843D01*
X-4390Y24637D01*
X-4198Y24327D01*
X-4045Y23965D01*
X-4007Y23449D01*
X-4045Y22933D01*
X-4198Y22571D01*
X-4390Y22261D01*
X-4620Y22055D01*
X-4926Y21900D01*
X-5692D01*
G01X-2480Y24482D02*
X-2250Y24791D01*
X-1981Y24946D01*
X-1675Y24998D01*
X-1292Y24895D01*
X-1023Y24637D01*
X-947Y24327D01*
X-985Y24017D01*
X-1138Y23759D01*
X-1905Y23242D01*
X-2250Y22881D01*
X-2480Y22365D01*
X-2556Y21900D01*
X-947D01*
G01X44937Y-26763D02*
Y-34637D01*
X17063D01*
Y-26763D01*
X44937D01*
G01X17071Y3908D02*
X19291D01*
X19756Y4061D01*
X20066Y4367D01*
X20169Y4750D01*
X20066Y5134D01*
X19756Y5440D01*
X19291Y5593D01*
X17071D01*
G01X20169Y7848D02*
X17071D01*
X17691Y7389D01*
G01X20169D02*
Y8308D01*
G01X32780Y30318D02*
Y20082D01*
X17820D01*
Y30318D01*
X32780D01*
G01X23284Y-16100D02*
Y-13002D01*
X24242D01*
X24549Y-13157D01*
X24740Y-13363D01*
X24817Y-13777D01*
X24740Y-14190D01*
X24510Y-14448D01*
X24242Y-14603D01*
X23284D01*
G01X24242D02*
X24817Y-16100D01*
G01X26306Y-15480D02*
X26535Y-15842D01*
X26842Y-16048D01*
X27187Y-16100D01*
X27493Y-16048D01*
X27800Y-15790D01*
X27991Y-15480D01*
X28030Y-15171D01*
X27953Y-14809D01*
X27685Y-14551D01*
X27417Y-14448D01*
X27072D01*
G01X27417D02*
X27647Y-14293D01*
X27838Y-14035D01*
X27915Y-13725D01*
X27838Y-13415D01*
X27647Y-13157D01*
X27302Y-13002D01*
X26957Y-13054D01*
X26612Y-13260D01*
G01X23383Y22400D02*
Y25498D01*
X24341D01*
X24648Y25343D01*
X24839Y25137D01*
X24916Y24723D01*
X24839Y24310D01*
X24609Y24052D01*
X24341Y23897D01*
X23383D01*
G01X24341D02*
X24916Y22400D01*
G01X27247D02*
Y25498D01*
X26788Y24878D01*
G01Y22400D02*
X27707D01*
G01X25600Y-35433D02*
Y-25600D01*
X36000D01*
Y-35433D01*
X25600D01*
G01X30289Y-24100D02*
X32169D01*
G01X31150Y-22736D02*
Y-25465D01*
G01X33907Y-20402D02*
Y-22622D01*
X34060Y-23087D01*
X34366Y-23397D01*
X34749Y-23500D01*
X35133Y-23397D01*
X35439Y-23087D01*
X35592Y-22622D01*
Y-20402D01*
G01X37005Y-22880D02*
X37234Y-23242D01*
X37541Y-23448D01*
X37886Y-23500D01*
X38192Y-23448D01*
X38499Y-23190D01*
X38690Y-22880D01*
X38729Y-22571D01*
X38652Y-22209D01*
X38384Y-21951D01*
X38116Y-21848D01*
X37771D01*
G01X38116D02*
X38346Y-21693D01*
X38537Y-21435D01*
X38614Y-21125D01*
X38537Y-20815D01*
X38346Y-20557D01*
X38001Y-20402D01*
X37656Y-20454D01*
X37311Y-20660D01*
G01X36700Y-10184D02*
X39798D01*
Y-11142D01*
X39643Y-11449D01*
X39437Y-11640D01*
X39023Y-11717D01*
X38610Y-11640D01*
X38352Y-11410D01*
X38197Y-11142D01*
Y-10184D01*
G01Y-11142D02*
X36700Y-11717D01*
G01Y-14508D02*
X39798D01*
X37578Y-13091D01*
Y-15006D01*
G01X51574Y7800D02*
G03I-7874J0D01*
G01X43732Y-24200D02*
X45769D01*
G01X42560Y7392D02*
X42405Y7163D01*
X42302Y6894D01*
Y6588D01*
X42457Y6243D01*
X42715Y5975D01*
X43025Y5783D01*
X43541Y5630D01*
X44006Y5592D01*
X44471Y5668D01*
X44780Y5783D01*
X45090Y6013D01*
X45297Y6281D01*
X45400Y6549D01*
Y6818D01*
X45297Y7086D01*
X45142Y7316D01*
X44935Y7507D01*
G01X44780Y8805D02*
X45142Y9034D01*
X45348Y9341D01*
X45400Y9686D01*
X45348Y9992D01*
X45090Y10299D01*
X44780Y10490D01*
X44471Y10529D01*
X44109Y10452D01*
X43851Y10184D01*
X43748Y9916D01*
Y9571D01*
G01Y9916D02*
X43593Y10146D01*
X43335Y10337D01*
X43025Y10414D01*
X42715Y10337D01*
X42457Y10146D01*
X42302Y9801D01*
X42354Y9456D01*
X42560Y9111D01*
G54D11*
G01X-17950Y27325D02*
Y30475D01*
X-11650D01*
Y27325D01*
X-17950D01*
G01X10424Y-3405D02*
Y16005D01*
X25976D01*
Y-3405D01*
X10424D01*
G01X16330Y12068D02*
G03I-1969J0D01*
G54D12*
G01X-24000Y-25700D02*
X-44000D01*
Y-35700D01*
X-24000D01*
Y-25700D01*
G01X-34000Y-30700D02*
Y-35700D01*
G01Y-25700D02*
Y-35700D01*
G01X-29000Y-25700D02*
X-30051Y-21763D01*
G01X-29000Y-25700D02*
X-29264Y-21763D01*
G01X-29000Y-25700D02*
X-28476Y-21763D01*
G01X-29000Y-25700D02*
X-30311Y-21763D01*
X-27689D01*
X-29000Y-25700D01*
G01X5835Y31656D02*
X-2235D01*
Y26144D01*
X5835D01*
Y31656D01*
G01X13435Y-7644D02*
X5365D01*
Y-13156D01*
X13435D01*
Y-7644D01*
G01X18244Y-10065D02*
Y-18135D01*
X23756D01*
Y-10065D01*
X18244D01*
G01X27744D02*
Y-18135D01*
X33256D01*
Y-10065D01*
X27744D01*
M02*
