G04 ================== begin FILE IDENTIFICATION RECORD ==================*
G04 Layout Name:  E:/workDir/vcc12_24/board/vcc12_5.brd*
G04 Film Name:    pmt*
G04 File Format:  Gerber RS274X*
G04 File Origin:  Cadence Allegro 16.5-P002*
G04 Origin Date:  Sun Oct 29 23:29:05 2017*
G04 *
G04 Layer:  BOARD GEOMETRY/OUTLINE*
G04 Layer:  PACKAGE GEOMETRY/PASTEMASK_TOP*
G04 Layer:  PIN/PASTEMASK_TOP*
G04 Layer:  VIA CLASS/PASTEMASK_TOP*
G04 *
G04 Offset:    (0.00 0.00)*
G04 Mirror:    No*
G04 Mode:      Positive*
G04 Rotation:  0*
G04 FullContactRelief:  No*
G04 UndefLineWidth:     6.00*
G04 ================== end FILE IDENTIFICATION RECORD ====================*
%FSLAX35Y35*MOIN*%
%IR0*IPPOS*OFA0.00000B0.00000*MIA0B0*SFA1.00000B1.00000*%
%ADD15R,.04724X.1063*%
%AMMACRO16*
4,1,44,-.02756,.00984,
-.02756,-.00984,
-.027501,-.010524,
-.027323,-.011187,
-.027034,-.011809,
-.02664,-.012372,
-.026155,-.012857,
-.025593,-.013251,
-.024972,-.013542,
-.024309,-.01372,
-.023625,-.01378,
-.02362,-.01378,
.02362,-.01378,
.024304,-.013721,
.024967,-.013543,
.025589,-.013254,
.026152,-.01286,
.026637,-.012375,
.027031,-.011813,
.027322,-.011192,
.0275,-.010529,
.02756,-.009845,
.02756,-.00984,
.02756,.00984,
.027501,.010524,
.027323,.011187,
.027034,.011809,
.02664,.012372,
.026155,.012857,
.025593,.013251,
.024972,.013542,
.024309,.01372,
.023625,.01378,
.02362,.01378,
-.02362,.01378,
-.024304,.013721,
-.024967,.013543,
-.025589,.013254,
-.026152,.01286,
-.026637,.012375,
-.027031,.011813,
-.027322,.011192,
-.0275,.010529,
-.02756,.009845,
-.02756,.00984,
0.0*
%
%ADD16MACRO16*%
%AMMACRO13*
4,1,44,.00984,.02756,
-.00984,.02756,
-.010524,.027501,
-.011187,.027323,
-.011809,.027034,
-.012372,.02664,
-.012857,.026155,
-.013251,.025593,
-.013542,.024972,
-.01372,.024309,
-.01378,.023625,
-.01378,.02362,
-.01378,-.02362,
-.013721,-.024304,
-.013543,-.024967,
-.013254,-.025589,
-.01286,-.026152,
-.012375,-.026637,
-.011813,-.027031,
-.011192,-.027322,
-.010529,-.0275,
-.009845,-.02756,
-.00984,-.02756,
.00984,-.02756,
.010524,-.027501,
.011187,-.027323,
.011809,-.027034,
.012372,-.02664,
.012857,-.026155,
.013251,-.025593,
.013542,-.024972,
.01372,-.024309,
.01378,-.023625,
.01378,-.02362,
.01378,.02362,
.013721,.024304,
.013543,.024967,
.013254,.025589,
.01286,.026152,
.012375,.026637,
.011813,.027031,
.011192,.027322,
.010529,.0275,
.009845,.02756,
.00984,.02756,
0.0*
%
%ADD13MACRO13*%
%ADD11R,.0374X.03937*%
%ADD14R,.06299X.02362*%
%ADD10R,.05906X.08268*%
%ADD12R,.08661X.06299*%
%ADD17C,.006*%
G75*
%LPD*%
G75*
G54D10*
X-38600Y-9268D03*
Y7268D03*
G54D11*
X-17950Y28900D03*
X-11650D03*
G54D12*
X-13000Y-17998D03*
Y7198D03*
G54D13*
X-2235Y28900D03*
X5365Y-10400D03*
X5835Y28900D03*
X13435Y-10400D03*
G54D14*
X7570Y-1200D03*
Y3800D03*
Y8800D03*
Y13800D03*
X28830Y-1200D03*
Y3800D03*
Y8800D03*
Y13800D03*
G54D15*
X16245Y25200D03*
X34355D03*
G54D16*
X21000Y-18135D03*
Y-10065D03*
X30500Y-18135D03*
Y-10065D03*
G54D17*
G01X-48228Y32933D02*
Y-32933D01*
G03X-45728Y-35433I2500J0D01*
G01X45728D01*
G03X48228Y-32933I0J2500D01*
G01Y32933D01*
G03X45728Y35433I-2500J0D01*
G01X-45728D01*
G03X-48228Y32933I0J-2500D01*
G01X-22700Y-35433D02*
Y-25600D01*
X16000D01*
Y-35433D01*
X-22700D01*
G01X25600D02*
Y-25600D01*
X36000D01*
Y-35433D01*
X25600D01*
M02*
