G04 ================== begin FILE IDENTIFICATION RECORD ==================*
G04 Layout Name:  E:/workDir/vcc12_24/board/vcc12_5.brd*
G04 Film Name:    TOP*
G04 File Format:  Gerber RS274X*
G04 File Origin:  Cadence Allegro 16.5-P002*
G04 Origin Date:  Sun Oct 29 23:38:43 2017*
G04 *
G04 Layer:  BOARD GEOMETRY/OUTLINE*
G04 Layer:  ETCH/TOP*
G04 Layer:  PIN/TOP*
G04 Layer:  VIA CLASS/TOP*
G04 *
G04 Offset:    (0.00 0.00)*
G04 Mirror:    No*
G04 Mode:      Positive*
G04 Rotation:  0*
G04 FullContactRelief:  No*
G04 UndefLineWidth:     0.00*
G04 ================== end FILE IDENTIFICATION RECORD ====================*
%FSLAX35Y35*MOIN*%
%IR0*IPPOS*OFA0.00000B0.00000*MIA0B0*SFA1.00000B1.00000*%
%ADD15C,.024*%
%ADD21R,.04724X.1063*%
%ADD19C,.01772*%
%ADD10C,.05906*%
%ADD11C,.06693*%
%AMMACRO22*
4,1,44,-.02756,.00984,
-.02756,-.00984,
-.027501,-.010524,
-.027323,-.011187,
-.027034,-.011809,
-.02664,-.012372,
-.026155,-.012857,
-.025593,-.013251,
-.024972,-.013542,
-.024309,-.01372,
-.023625,-.01378,
-.02362,-.01378,
.02362,-.01378,
.024304,-.013721,
.024967,-.013543,
.025589,-.013254,
.026152,-.01286,
.026637,-.012375,
.027031,-.011813,
.027322,-.011192,
.0275,-.010529,
.02756,-.009845,
.02756,-.00984,
.02756,.00984,
.027501,.010524,
.027323,.011187,
.027034,.011809,
.02664,.012372,
.026155,.012857,
.025593,.013251,
.024972,.013542,
.024309,.01372,
.023625,.01378,
.02362,.01378,
-.02362,.01378,
-.024304,.013721,
-.024967,.013543,
-.025589,.013254,
-.026152,.01286,
-.026637,.012375,
-.027031,.011813,
-.027322,.011192,
-.0275,.010529,
-.02756,.009845,
-.02756,.00984,
0.0*
%
%ADD22MACRO22*%
%AMMACRO18*
4,1,44,.00984,.02756,
-.00984,.02756,
-.010524,.027501,
-.011187,.027323,
-.011809,.027034,
-.012372,.02664,
-.012857,.026155,
-.013251,.025593,
-.013542,.024972,
-.01372,.024309,
-.01378,.023625,
-.01378,.02362,
-.01378,-.02362,
-.013721,-.024304,
-.013543,-.024967,
-.013254,-.025589,
-.01286,-.026152,
-.012375,-.026637,
-.011813,-.027031,
-.011192,-.027322,
-.010529,-.0275,
-.009845,-.02756,
-.00984,-.02756,
.00984,-.02756,
.010524,-.027501,
.011187,-.027323,
.011809,-.027034,
.012372,-.02664,
.012857,-.026155,
.013251,-.025593,
.013542,-.024972,
.01372,-.024309,
.01378,-.023625,
.01378,-.02362,
.01378,.02362,
.013721,.024304,
.013543,.024967,
.013254,.025589,
.01286,.026152,
.012375,.026637,
.011813,.027031,
.011192,.027322,
.010529,.0275,
.009845,.02756,
.00984,.02756,
0.0*
%
%ADD18MACRO18*%
%ADD13R,.05906X.05906*%
%ADD14R,.06693X.06693*%
%ADD16R,.0374X.03937*%
%ADD20R,.06299X.02362*%
%ADD12R,.05906X.08268*%
%ADD17R,.08661X.06299*%
%ADD23C,.012*%
%ADD24C,.04*%
G75*
%LPD*%
G75*
G54D10*
X-42906Y28900D03*
X43700Y13706D03*
G54D20*
X7570Y-1200D03*
Y3800D03*
Y8800D03*
Y13800D03*
X28830Y-1200D03*
Y3800D03*
Y8800D03*
Y13800D03*
G54D11*
X-39000Y-30700D03*
G54D12*
X-38600Y-9268D03*
Y7268D03*
G54D21*
X16245Y25200D03*
X34355D03*
G54D13*
X-31094Y28900D03*
X43700Y1894D03*
G54D22*
X21000Y-18135D03*
Y-10065D03*
X30500Y-18135D03*
Y-10065D03*
G54D23*
G01X5365Y-10400D02*
Y-11778D01*
G54D14*
X-29000Y-30700D03*
X21000D03*
X41000D03*
G54D24*
G01X-38600Y-9268D02*
X-42732D01*
X-45561Y-6439D01*
Y26245D01*
X-42906Y28900D01*
G01X-39000Y-30700D02*
Y-9668D01*
X-38600Y-9268D01*
G01D02*
X-32668D01*
X-24600Y-1200D01*
X-500D01*
G01X-13000Y7198D02*
X-13070Y7268D01*
X-38600D01*
G01X-29000Y-30700D02*
X-29300Y-30400D01*
Y-21800D01*
X-25498Y-17998D01*
X-13000D01*
G01X-31094Y28900D02*
X-17950D01*
G01X-17998Y19900D02*
Y24383D01*
X-17950Y24431D01*
Y28900D01*
G01X-13000Y-17998D02*
X15607D01*
X15744Y-18135D01*
X21000D01*
G01X7570Y8800D02*
X-5967D01*
X-7569Y7198D01*
X-13000D01*
G01X-11650Y28900D02*
X-2235D01*
G01X-500Y-1200D02*
X7570D01*
G01X5400Y-23300D02*
X27200D01*
X30500Y-20000D01*
Y-18135D01*
G01X7570Y-1200D02*
Y-8195D01*
X5365Y-10400D01*
G01X7570Y13800D02*
Y19987D01*
X12783Y25200D01*
X16245D01*
G01X9800Y29300D02*
X6235D01*
X5835Y28900D01*
G01X7570Y3800D02*
X11690D01*
X13435Y2055D01*
Y-10400D01*
G01X7570Y13800D02*
X28830D01*
G01X21000Y-10065D02*
X30500D01*
G01D02*
Y-2870D01*
X28830Y-1200D01*
G01X30500Y-18135D02*
X39065D01*
X39100Y-18100D01*
X41000Y-20000D01*
Y-30700D01*
G01X28830Y3800D02*
X40700D01*
X42606Y1894D01*
X43700D01*
G01X28830Y13800D02*
Y8800D01*
G01X34355Y25200D02*
Y16142D01*
X34480Y16017D01*
Y11114D01*
X43700Y1894D01*
G54D15*
X-17998Y19900D03*
X-13000Y-17998D03*
X5400Y-23300D03*
Y-9800D03*
G54D16*
X-17950Y28900D03*
X-11650D03*
G54D17*
X-13000Y-17998D03*
Y7198D03*
G54D18*
X-2235Y28900D03*
X5365Y-10400D03*
X5835Y28900D03*
X13435Y-10400D03*
G54D19*
X-500Y-1200D03*
X9800Y29300D03*
M02*
